# xmcd CD database file
#
# Track frame offsets:
#	150
#	15960
#	30806
#	46816
#	59784
#	76614
#	88076
#	101807
#	114937
#	129045
#	143910
#	158179
#
# Disc length: 2287 seconds
#
# Revision: 1
# Processed by: cddbd v1.5.2PL0 Copyright (c) Steve Scherf et al.
# Submitted via: CDex 1.70beta2
#
DISCID=8408ed0c
DTITLE=Eleven Hundred Springs - Country Jam
DYEAR=2008
DGENRE=Country
TTITLE0=Texas Afternoon
TTITLE1=Every Time I Get Close To You
TTITLE2=Nobody Told You About the Love
TTITLE3=Whose Heart Are You Breaking Tonight
TTITLE4=I Never Crossed Your Mind
TTITLE5=Don't Stop The Music
TTITLE6=V-8 Ford Boogie
TTITLE7=I'll Be Here For You
TTITLE8=Fallin Off The Wagon Again
TTITLE9=Ten To Life
TTITLE10=You Can't Hide From Your Heart
TTITLE11=Rocket 88
EXTD=YEAR: 2008
EXTT0=
EXTT1=
EXTT2=
EXTT3=
EXTT4=
EXTT5=
EXTT6=
EXTT7=
EXTT8=
EXTT9=
EXTT10=
EXTT11=
PLAYORDER=
